<svg width="35" height="35" viewBox="0 0 35 35" fill="none" xmlns="http://www.w3.org/2000/svg">
<path d="M20.6 20.6H33M26.8 26.8H33M20.6 33H33M12.85 2H3.55C3.13891 2 2.74467 2.1633 2.45398 2.45398C2.1633 2.74467 2 3.13891 2 3.55V12.85C2 13.2611 2.1633 13.6553 2.45398 13.946C2.74467 14.2367 3.13891 14.4 3.55 14.4H12.85C13.2611 14.4 13.6553 14.2367 13.946 13.946C14.2367 13.6553 14.4 13.2611 14.4 12.85V3.55C14.4 3.13891 14.2367 2.74467 13.946 2.45398C13.6553 2.1633 13.2611 2 12.85 2ZM12.85 20.6H3.55C3.13891 20.6 2.74467 20.7633 2.45398 21.054C2.1633 21.3447 2 21.7389 2 22.15V31.45C2 31.8611 2.1633 32.2553 2.45398 32.546C2.74467 32.8367 3.13891 33 3.55 33H12.85C13.2611 33 13.6553 32.8367 13.946 32.546C14.2367 32.2553 14.4 31.8611 14.4 31.45V22.15C14.4 21.7389 14.2367 21.3447 13.946 21.054C13.6553 20.7633 13.2611 20.6 12.85 20.6ZM31.45 2H22.15C21.7389 2 21.3447 2.1633 21.054 2.45398C20.7633 2.74467 20.6 3.13891 20.6 3.55V12.85C20.6 13.2611 20.7633 13.6553 21.054 13.946C21.3447 14.2367 21.7389 14.4 22.15 14.4H31.45C31.8611 14.4 32.2553 14.2367 32.546 13.946C32.8367 13.6553 33 13.2611 33 12.85V3.55C33 3.13891 32.8367 2.74467 32.546 2.45398C32.2553 2.1633 31.8611 2 31.45 2Z" stroke="white" stroke-width="4" stroke-linecap="round" stroke-linejoin="round"/>
</svg>
