<svg width="39" height="34" viewBox="0 0 39 34" fill="none" xmlns="http://www.w3.org/2000/svg">
<path d="M20.2956 0.27916C20.0649 0.0982485 19.7808 0 19.4883 0C19.1958 0 18.9117 0.0982485 18.681 0.27916L0 14.9322L1.6159 16.9879L3.9 15.1963V31.3846C3.90137 32.0778 4.17574 32.7422 4.66304 33.2324C5.15034 33.7226 5.81086 33.9986 6.5 34H32.5C33.1891 33.9986 33.8497 33.7226 34.337 33.2324C34.8243 32.7422 35.0986 32.0778 35.1 31.3846V15.2081L37.3841 16.9997L39 14.9439L20.2956 0.27916ZM22.1 31.3846H16.9V20.9228H22.1V31.3846ZM24.7 31.3846V20.9228C24.6993 20.2294 24.4252 19.5645 23.9377 19.0742C23.4503 18.5838 22.7894 18.3081 22.1 18.3074H16.9C16.2106 18.3081 15.5497 18.5838 15.0623 19.0742C14.5748 19.5645 14.3007 20.2294 14.3 20.9228V31.3846H6.5V13.1576L19.5 2.97045L32.5 13.1707V31.3846H24.7Z" fill="white"/>
</svg>
