<svg width="28" height="30" viewBox="0 0 28 30" fill="none" xmlns="http://www.w3.org/2000/svg">
<path d="M25.7123 15.9569C25.4838 15.6923 25.3578 15.3522 25.3578 15C25.3578 14.6478 25.4838 14.3077 25.7123 14.0431L27.5363 11.9554C27.7373 11.7273 27.8621 11.4403 27.8928 11.1356C27.9235 10.8308 27.8586 10.524 27.7073 10.2591L24.8573 5.24283C24.7075 4.97827 24.4795 4.76856 24.2057 4.6436C23.9319 4.51864 23.6263 4.48481 23.3325 4.54692L20.6534 5.09785C20.3126 5.16951 19.9577 5.11175 19.6558 4.93547C19.3539 4.75919 19.1258 4.47658 19.0147 4.14098L18.1454 1.48784C18.0498 1.19988 17.8677 0.949765 17.6247 0.772856C17.3818 0.595946 17.0904 0.501187 16.7916 0.501972H11.0916C10.7808 0.48547 10.4733 0.572905 10.216 0.750923C9.95867 0.928941 9.7657 1.18776 9.66655 1.48784L8.86854 4.14098C8.75739 4.47658 8.52934 4.75919 8.22744 4.93547C7.92553 5.11175 7.57065 5.16951 7.22976 5.09785L4.47948 4.54692C4.20096 4.50688 3.91702 4.55159 3.66344 4.67543C3.40985 4.79927 3.19796 4.99669 3.05446 5.24283L0.20442 10.2591C0.0493214 10.5211 -0.0204162 10.8261 0.00517787 11.1308C0.0307719 11.4355 0.150387 11.7241 0.346922 11.9554L2.1567 14.0431C2.38515 14.3077 2.51115 14.6478 2.51115 15C2.51115 15.3522 2.38515 15.6923 2.1567 15.9569L0.346922 18.0446C0.150387 18.2759 0.0307719 18.5645 0.00517787 18.8692C-0.0204162 19.1739 0.0493214 19.479 0.20442 19.7409L3.05446 24.7572C3.20422 25.0217 3.43226 25.2314 3.70605 25.3564C3.97984 25.4814 4.28542 25.5152 4.57923 25.4531L7.25826 24.9022C7.59915 24.8305 7.95404 24.8883 8.25594 25.0645C8.55784 25.2408 8.78589 25.5234 8.89704 25.859L9.7663 28.5122C9.86545 28.8122 10.0584 29.0711 10.3157 29.2491C10.5731 29.4271 10.8806 29.5145 11.1913 29.498H16.8914C17.1901 29.4988 17.4816 29.4041 17.7245 29.2271C17.9674 29.0502 18.1496 28.8001 18.2452 28.5122L19.1144 25.859C19.2256 25.5234 19.4536 25.2408 19.7555 25.0645C20.0574 24.8883 20.4123 24.8305 20.7532 24.9022L23.4322 25.4531C23.726 25.5152 24.0316 25.4814 24.3054 25.3564C24.5792 25.2314 24.8072 25.0217 24.957 24.7572L27.807 19.7409C27.9583 19.476 28.0233 19.1692 27.9926 18.8644C27.9618 18.5597 27.837 18.2727 27.636 18.0446L25.7123 15.9569ZM23.589 17.8996L24.729 19.2044L22.905 22.423L21.2234 22.075C20.1971 21.8616 19.1295 22.039 18.2232 22.5735C17.3169 23.108 16.6351 23.9625 16.3071 24.9746L15.7656 26.5984H12.1176L11.6046 24.9456C11.2766 23.9335 10.5948 23.079 9.6885 22.5445C8.78222 22.01 7.71459 21.8326 6.68826 22.046L5.00673 22.394L3.15421 19.1899L4.29422 17.8851C4.99527 17.0877 5.38284 16.0554 5.38284 14.9855C5.38284 13.9156 4.99527 12.8833 4.29422 12.0859L3.15421 10.7811L4.97823 7.59151L6.65976 7.93946C7.68608 8.1529 8.75372 7.97553 9.66 7.44102C10.5663 6.9065 11.2481 6.05205 11.5761 5.03986L12.1176 3.40158H15.7656L16.3071 5.05435C16.6351 6.06655 17.3169 6.921 18.2232 7.45551C19.1295 7.99003 20.1971 8.1674 21.2234 7.95396L22.905 7.60601L24.729 10.8246L23.589 12.1294C22.8958 12.925 22.5131 13.9513 22.5131 15.0145C22.5131 16.0777 22.8958 17.104 23.589 17.8996ZM13.9416 9.20079C12.8142 9.20079 11.7122 9.54091 10.7748 10.1781C9.83744 10.8154 9.10684 11.7211 8.67542 12.7807C8.24399 13.8404 8.13111 15.0064 8.35105 16.1314C8.57099 17.2563 9.11387 18.2896 9.91104 19.1007C10.7082 19.9117 11.7239 20.464 12.8296 20.6878C13.9353 20.9115 15.0814 20.7967 16.1229 20.3578C17.1645 19.9188 18.0547 19.1755 18.681 18.2219C19.3074 17.2682 19.6417 16.147 19.6417 15C19.6417 13.462 19.0411 11.9869 17.9722 10.8993C16.9032 9.81178 15.4534 9.20079 13.9416 9.20079ZM13.9416 17.8996C13.3779 17.8996 12.8269 17.7295 12.3582 17.4109C11.8895 17.0923 11.5242 16.6395 11.3085 16.1096C11.0928 15.5798 11.0364 14.9968 11.1463 14.4343C11.2563 13.8718 11.5277 13.3552 11.9263 12.9497C12.3249 12.5442 12.8327 12.268 13.3856 12.1561C13.9384 12.0442 14.5115 12.1016 15.0323 12.3211C15.553 12.5406 15.9982 12.9122 16.3113 13.3891C16.6245 13.8659 16.7916 14.4265 16.7916 15C16.7916 15.769 16.4914 16.5065 15.9569 17.0503C15.4224 17.5941 14.6975 17.8996 13.9416 17.8996Z" fill="white"/>
</svg>
