<svg width="36" height="21" viewBox="0 0 36 21" fill="none" xmlns="http://www.w3.org/2000/svg">
<path d="M32.4 9.54545C31.9672 9.54873 31.5386 9.63475 31.1346 9.79936L26.8182 6.05182C26.9244 5.64327 27 5.21945 27 4.77273C27 2.12673 24.9948 0 22.5 0C20.0052 0 18 2.12673 18 4.77273C18 5.52873 18.18 6.23318 18.4716 6.867L13.2354 13.4305C13.0258 13.3888 12.8132 13.3665 12.6 13.3636C12.2778 13.3636 11.9736 13.4209 11.6784 13.5049L7.065 8.61191C7.146 8.30073 7.2 7.97809 7.2 7.63636C7.2 5.52109 5.5944 3.81818 3.6 3.81818C1.6056 3.81818 0 5.52109 0 7.63636C0 9.75164 1.6056 11.4545 3.6 11.4545C3.9222 11.4545 4.2264 11.3973 4.5216 11.3133L9.135 16.2063C9.04848 16.5235 9.00306 16.8516 9 17.1818C9 19.2971 10.6056 21 12.6 21C14.5944 21 16.2 19.2971 16.2 17.1818C16.2 16.7294 16.1136 16.3036 15.9786 15.9008L21.222 9.32973C21.6306 9.45573 22.0536 9.54545 22.5 9.54545C23.2104 9.54129 23.9095 9.35737 24.5394 9.009L28.8576 12.7565C28.8237 12.957 28.8045 13.16 28.8 13.3636C28.8 15.4789 30.4056 17.1818 32.4 17.1818C34.3944 17.1818 36 15.4789 36 13.3636C36 11.2484 34.3944 9.54545 32.4 9.54545Z" fill="white"/>
</svg>
