<!DOCTYPE svg PUBLIC "-//W3C//DTD SVG 1.1//EN" "http://www.w3.org/Graphics/SVG/1.1/DTD/svg11.dtd">
<!-- Uploaded to: SVG Repo, www.svgrepo.com, Transformed by: SVG Repo Mixer Tools -->
<svg width="800px" height="800px" viewBox="0 0 24 24" xmlns="http://www.w3.org/2000/svg" fill="#000000">
<g id="SVGRepo_bgCarrier" stroke-width="0"/>
<g id="SVGRepo_tracerCarrier" stroke-linecap="round" stroke-linejoin="round"/>
<g id="SVGRepo_iconCarrier"> <path fill="none" stroke="#ffffff" stroke-width="2" d="M2,5.07692308 C2,5.07692308 3.66666667,2 12,2 C20.3333333,2 22,5.07692308 22,5.07692308 L22,18.9230769 C22,18.9230769 20.3333333,22 12,22 C3.66666667,22 2,18.9230769 2,18.9230769 L2,5.07692308 Z M2,13 C2,13 5.33333333,16 12,16 C18.6666667,16 22,13 22,13 M2,7 C2,7 5.33333333,10 12,10 C18.6666667,10 22,7 22,7"/> </g>
</svg>