<svg width="304" height="118" viewBox="0 0 304 118" fill="none" xmlns="http://www.w3.org/2000/svg">
<path d="M0 0H304V94C304 107.255 293.255 118 280 118H0V0Z" fill="#4B8E4B"/>
<path d="M89.3947 23L84.9472 24.4509C77.3249 27.0427 69.1853 27.838 61.1899 26.7723C52.7882 25.4963 44.1888 26.6302 36.4318 30.0368C32.3196 31.7504 28.7107 34.4435 25.9337 37.8708C23.1566 41.2982 21.2997 45.3509 20.5319 49.6599C19.7508 53.8039 19.8307 58.0593 20.7668 62.1723C21.7028 66.2853 23.4759 70.1717 25.9801 73.5995C25.7577 74.3612 25.5354 75.1229 25.35 75.8846C23.8447 82.1489 23.0983 88.5649 23.1263 95H30.5388C30.8872 89.7327 31.618 84.4963 32.7256 79.3305C37.8678 82.048 43.6345 83.4339 49.478 83.3567C54.928 83.353 60.3219 82.28 65.3409 80.201C93.5458 68.4126 89.8395 29.2025 89.8395 27.5703L89.3947 23ZM62.45 73.527C52.7766 77.5532 41.213 76.864 34.727 71.8947C35.8232 68.3075 37.3274 64.8521 39.2116 61.5934C40.6763 59.2481 42.4042 57.0704 44.3633 55.1008C46.3651 53.1101 48.6196 51.3791 51.0717 49.9501C56.1385 46.9851 61.7577 45.0369 67.6017 44.2191V40.5919C60.8777 40.3641 54.195 41.707 48.1067 44.5093C41.8816 47.482 36.6024 52.0592 32.8367 57.7486C31.4401 59.9216 30.2016 62.1882 29.1305 64.5315C27.4127 60.2309 26.9257 55.5533 27.7221 51.002C28.2438 47.8156 29.586 44.8117 31.622 42.2734C33.6581 39.735 36.321 37.7458 39.3598 36.4932C43.7911 34.4662 48.6264 33.4256 53.5178 33.4463C55.8157 33.4463 58.0766 33.664 60.4486 33.8453C67.8772 34.7833 75.4196 34.3528 82.6863 32.5758C82.4269 42.5869 80.5737 65.9824 62.45 73.527Z" fill="white"/>
<path d="M126.466 44.756C129.379 44.756 131.761 43.6033 133.61 41.298L137.41 45.212C134.395 48.6067 130.836 50.304 126.732 50.304C122.653 50.304 119.284 49.012 116.624 46.428C113.989 43.844 112.672 40.5887 112.672 36.662C112.672 32.71 114.015 29.4167 116.7 26.782C119.411 24.1473 122.717 22.83 126.618 22.83C130.975 22.83 134.623 24.4893 137.562 27.808L133.876 31.988C132.001 29.6573 129.671 28.492 126.884 28.492C124.655 28.492 122.742 29.2267 121.146 30.696C119.575 32.14 118.79 34.1033 118.79 36.586C118.79 39.0433 119.537 41.0193 121.032 42.514C122.527 44.0087 124.338 44.756 126.466 44.756ZM158.673 50H153.315V47.53C151.846 49.3793 150.022 50.304 147.843 50.304C145.69 50.304 143.879 49.6833 142.409 48.442C140.94 47.1753 140.205 45.5033 140.205 43.426C140.205 41.3233 140.965 39.7527 142.485 38.714C144.005 37.6753 146.083 37.156 148.717 37.156H152.973V37.042C152.973 34.8633 151.821 33.774 149.515 33.774C148.527 33.774 147.476 33.9767 146.361 34.382C145.272 34.762 144.347 35.2433 143.587 35.826L141.041 32.14C143.727 30.1893 146.792 29.214 150.237 29.214C152.72 29.214 154.747 29.8347 156.317 31.076C157.888 32.3173 158.673 34.2807 158.673 36.966V50ZM152.935 42.21V41.222H149.363C147.083 41.222 145.943 41.9313 145.943 43.35C145.943 44.0847 146.209 44.6547 146.741 45.06C147.299 45.44 148.084 45.63 149.097 45.63C150.111 45.63 150.997 45.326 151.757 44.718C152.543 44.0847 152.935 43.2487 152.935 42.21ZM174.624 34.572C172.927 34.572 171.66 35.18 170.824 36.396C169.988 37.5867 169.57 39.17 169.57 41.146V50H163.87V29.556H169.57V32.254C170.305 31.418 171.217 30.7087 172.306 30.126C173.421 29.5433 174.548 29.2393 175.688 29.214L175.726 34.572H174.624ZM191.273 29.214C193.756 29.214 195.922 30.1893 197.771 32.14C199.62 34.0653 200.545 36.548 200.545 39.588C200.545 42.628 199.595 45.174 197.695 47.226C195.795 49.278 193.629 50.304 191.197 50.304C188.79 50.304 186.789 49.3033 185.193 47.302V50H179.493V21.804H185.193V31.836C186.764 30.088 188.79 29.214 191.273 29.214ZM185.117 39.816C185.117 41.4627 185.573 42.818 186.485 43.882C187.422 44.9207 188.55 45.44 189.867 45.44C191.184 45.44 192.337 44.9207 193.325 43.882C194.313 42.818 194.807 41.4627 194.807 39.816C194.807 38.1693 194.326 36.7887 193.363 35.674C192.4 34.5593 191.248 34.002 189.905 34.002C188.562 34.002 187.422 34.5593 186.485 35.674C185.573 36.7633 185.117 38.144 185.117 39.816ZM209.362 39.778C209.362 41.45 209.83 42.818 210.768 43.882C211.73 44.9207 212.946 45.44 214.416 45.44C215.91 45.44 217.126 44.9207 218.064 43.882C219.026 42.818 219.508 41.45 219.508 39.778C219.508 38.106 219.026 36.738 218.064 35.674C217.126 34.61 215.91 34.078 214.416 34.078C212.946 34.078 211.73 34.61 210.768 35.674C209.83 36.738 209.362 38.106 209.362 39.778ZM225.246 39.778C225.246 42.742 224.22 45.2373 222.168 47.264C220.116 49.2907 217.532 50.304 214.416 50.304C211.325 50.304 208.754 49.2907 206.702 47.264C204.65 45.2373 203.624 42.742 203.624 39.778C203.624 36.814 204.65 34.3187 206.702 32.292C208.754 30.24 211.325 29.214 214.416 29.214C217.532 29.214 220.116 30.24 222.168 32.292C224.22 34.3187 225.246 36.814 225.246 39.778ZM235.179 38.6V50H229.479V29.556H235.179V31.836C236.902 30.088 238.84 29.214 240.993 29.214C243.147 29.214 244.945 29.974 246.389 31.494C247.859 33.014 248.593 35.0407 248.593 37.574V50H242.893V38.448C242.893 35.3067 241.741 33.736 239.435 33.736C238.295 33.736 237.295 34.154 236.433 34.99C235.597 35.8007 235.179 37.004 235.179 38.6ZM133.42 69.438V74.72H120.196V80.192H132.09V85.246H120.196V90.756H133.838V96H114.268V69.438H133.42ZM157.333 84.98V96H151.595V84.828C151.595 83.2067 151.342 82.016 150.835 81.256C150.354 80.496 149.556 80.116 148.441 80.116C147.352 80.116 146.377 80.534 145.515 81.37C144.679 82.1807 144.261 83.384 144.261 84.98V96H138.561V75.556H144.261V77.874C145.832 76.1007 147.631 75.214 149.657 75.214C150.949 75.214 152.115 75.594 153.153 76.354C154.217 77.114 155.015 78.0387 155.547 79.128C156.333 77.8867 157.384 76.924 158.701 76.24C160.044 75.556 161.387 75.214 162.729 75.214C165.136 75.214 167.074 75.936 168.543 77.38C170.013 78.7987 170.747 80.8633 170.747 83.574V96H165.009V84.828C165.009 81.6867 163.857 80.116 161.551 80.116C160.411 80.116 159.423 80.534 158.587 81.37C157.751 82.1807 157.333 83.384 157.333 84.98ZM181.63 96H175.93V75.556H181.63V96ZM176.386 72.972C175.753 72.3133 175.436 71.5153 175.436 70.578C175.436 69.6407 175.753 68.8553 176.386 68.222C177.045 67.5633 177.843 67.234 178.78 67.234C179.718 67.234 180.503 67.5633 181.136 68.222C181.795 68.8553 182.124 69.6407 182.124 70.578C182.124 71.5153 181.795 72.3133 181.136 72.972C180.503 73.6053 179.718 73.922 178.78 73.922C177.843 73.922 177.045 73.6053 176.386 72.972ZM202.416 89.654C202.416 91.6553 201.669 93.264 200.174 94.48C198.705 95.696 196.83 96.304 194.55 96.304C193.03 96.304 191.447 96.038 189.8 95.506C188.153 94.9487 186.671 94.138 185.354 93.074L187.862 89.502C189.99 91.1487 192.257 91.972 194.664 91.972C195.399 91.972 195.981 91.8327 196.412 91.554C196.843 91.25 197.058 90.8573 197.058 90.376C197.058 89.8947 196.754 89.4513 196.146 89.046C195.563 88.6407 194.702 88.2607 193.562 87.906C192.447 87.5513 191.586 87.2473 190.978 86.994C190.395 86.7407 189.724 86.3733 188.964 85.892C187.419 84.9293 186.646 83.5107 186.646 81.636C186.646 79.736 187.406 78.1907 188.926 77C190.446 75.8093 192.409 75.214 194.816 75.214C197.223 75.214 199.629 76.0247 202.036 77.646L199.908 81.446C198.135 80.23 196.361 79.622 194.588 79.622C192.84 79.622 191.966 80.1033 191.966 81.066C191.966 81.598 192.245 82.016 192.802 82.32C193.359 82.624 194.284 82.9787 195.576 83.384C196.868 83.7893 197.78 84.106 198.312 84.334C198.869 84.5367 199.528 84.866 200.288 85.322C201.707 86.1833 202.416 87.6273 202.416 89.654ZM222.158 89.654C222.158 91.6553 221.411 93.264 219.916 94.48C218.447 95.696 216.572 96.304 214.292 96.304C212.772 96.304 211.189 96.038 209.542 95.506C207.896 94.9487 206.414 94.138 205.096 93.074L207.604 89.502C209.732 91.1487 212 91.972 214.406 91.972C215.141 91.972 215.724 91.8327 216.154 91.554C216.585 91.25 216.8 90.8573 216.8 90.376C216.8 89.8947 216.496 89.4513 215.888 89.046C215.306 88.6407 214.444 88.2607 213.304 87.906C212.19 87.5513 211.328 87.2473 210.72 86.994C210.138 86.7407 209.466 86.3733 208.706 85.892C207.161 84.9293 206.388 83.5107 206.388 81.636C206.388 79.736 207.148 78.1907 208.668 77C210.188 75.8093 212.152 75.214 214.558 75.214C216.965 75.214 219.372 76.0247 221.778 77.646L219.65 81.446C217.877 80.23 216.104 79.622 214.33 79.622C212.582 79.622 211.708 80.1033 211.708 81.066C211.708 81.598 211.987 82.016 212.544 82.32C213.102 82.624 214.026 82.9787 215.318 83.384C216.61 83.7893 217.522 84.106 218.054 84.334C218.612 84.5367 219.27 84.866 220.03 85.322C221.449 86.1833 222.158 87.6273 222.158 89.654ZM232.211 96H226.511V75.556H232.211V96ZM226.967 72.972C226.333 72.3133 226.017 71.5153 226.017 70.578C226.017 69.6407 226.333 68.8553 226.967 68.222C227.625 67.5633 228.423 67.234 229.361 67.234C230.298 67.234 231.083 67.5633 231.717 68.222C232.375 68.8553 232.705 69.6407 232.705 70.578C232.705 71.5153 232.375 72.3133 231.717 72.972C231.083 73.6053 230.298 73.922 229.361 73.922C228.423 73.922 227.625 73.6053 226.967 72.972ZM242.166 85.778C242.166 87.45 242.635 88.818 243.572 89.882C244.535 90.9207 245.751 91.44 247.22 91.44C248.715 91.44 249.931 90.9207 250.868 89.882C251.831 88.818 252.312 87.45 252.312 85.778C252.312 84.106 251.831 82.738 250.868 81.674C249.931 80.61 248.715 80.078 247.22 80.078C245.751 80.078 244.535 80.61 243.572 81.674C242.635 82.738 242.166 84.106 242.166 85.778ZM258.05 85.778C258.05 88.742 257.024 91.2373 254.972 93.264C252.92 95.2907 250.336 96.304 247.22 96.304C244.13 96.304 241.558 95.2907 239.506 93.264C237.454 91.2373 236.428 88.742 236.428 85.778C236.428 82.814 237.454 80.3187 239.506 78.292C241.558 76.24 244.13 75.214 247.22 75.214C250.336 75.214 252.92 76.24 254.972 78.292C257.024 80.3187 258.05 82.814 258.05 85.778ZM267.984 84.6V96H262.284V75.556H267.984V77.836C269.707 76.088 271.645 75.214 273.798 75.214C275.951 75.214 277.75 75.974 279.194 77.494C280.663 79.014 281.398 81.0407 281.398 83.574V96H275.698V84.448C275.698 81.3067 274.545 79.736 272.24 79.736C271.1 79.736 270.099 80.154 269.238 80.99C268.402 81.8007 267.984 83.004 267.984 84.6Z" fill="white"/>
</svg>
