<svg width="51" height="50" viewBox="0 0 51 50" fill="none" xmlns="http://www.w3.org/2000/svg">
<path fill-rule="evenodd" clip-rule="evenodd" d="M25.3236 5C21.81 4.99935 18.3577 5.91622 15.3113 7.65906C12.2649 9.40191 9.7309 11.9098 7.96224 14.9324C6.19358 17.955 5.25213 21.3865 5.23185 24.8846C5.21158 28.3826 6.11319 31.8248 7.84669 34.8675C9.01837 33.3514 10.5246 32.1239 12.2488 31.2799C13.973 30.4359 15.8691 29.998 17.7904 30H32.8567C34.7781 29.998 36.6742 30.4359 38.3984 31.2799C40.1226 32.1239 41.6288 33.3514 42.8005 34.8675C44.534 31.8248 45.4356 28.3826 45.4153 24.8846C45.3951 21.3865 44.4536 17.955 42.685 14.9324C40.9163 11.9098 38.3823 9.40191 35.3359 7.65906C32.2894 5.91622 28.8372 4.99935 25.3236 5ZM45.2689 40.19C48.6262 35.8324 50.4422 30.4919 50.4341 25C50.4341 11.1925 39.1921 0 25.3236 0C11.4551 0 0.213102 11.1925 0.213102 25C0.204812 30.4919 2.02082 35.8325 5.37833 40.19L5.36578 40.235L6.2572 41.2675C8.61227 44.0087 11.5364 46.209 14.828 47.7166C18.1196 49.2241 21.7004 50.0032 25.3236 50C30.4143 50.0093 35.3864 48.4697 39.5738 45.5875C41.359 44.3595 42.9777 42.9075 44.39 41.2675L45.2814 40.235L45.2689 40.19ZM25.3236 9.99999C23.3257 9.99999 21.4096 10.7902 19.9969 12.1967C18.5841 13.6032 17.7904 15.5109 17.7904 17.5C17.7904 19.4891 18.5841 21.3968 19.9969 22.8033C21.4096 24.2098 23.3257 25 25.3236 25C27.3215 25 29.2376 24.2098 30.6503 22.8033C32.0631 21.3968 32.8567 19.4891 32.8567 17.5C32.8567 15.5109 32.0631 13.6032 30.6503 12.1967C29.2376 10.7902 27.3215 9.99999 25.3236 9.99999Z" fill="white"/>
</svg>
